# xmcd CD database file
#
# Track frame offsets:
#	150
#	8190
#	27177
#	50477
#	64847
#	86872
#	106455
#	130855
#	149987
#	177995
#	200620
#	227415
#	231637
#	254102
#	279512
#	301667
#	338677
#
# Disc length: 4795 seconds
#
# Revision: 0
# Processed by: cddbd v1.5.1PL0 Copyright (c) Steve Scherf et al.
# Submitted via: CDex 1.51
#
DISCID=0012b911
DTITLE=YOU THE ROCK★ - I LOVE YOU THE ROCK★
DYEAR=2003
DGENRE=Hip-Hop
TTITLE0=THEME OF ROCK HEAD
TTITLE1=超楽C-E-Z (Get Busy y'all)
TTITLE2=MANHATTAN DREAM
TTITLE3=THE PROFESSIONAL ENTERTAINER(the ruler'a back)
TTITLE4=JAPAN IN THE HOUSE featuring BOY KEN
TTITLE5=FUKUROU(YAKANHIKOU)
TTITLE6=ROCKY ROAD(友情BBS)
TTITLE7=RAP MACHINE
TTITLE8=BACK CITY BLUES
TTITLE9=HIP HOP BOOGIE
TTITLE10=PERSONAL EFFECTS ONLY
TTITLE11=MASS VS CORE(94 LIVE TAPE)
TTITLE12=DUCK ROCK FEVER
TTITLE13=THE★GRAFFITIROCK
TTITLE14=HOO! EI! HO! '98
TTITLE15=FREE featuring TWIGY
TTITLE16=DATA
EXTD=YEAR: 2003
EXTT0=
EXTT1=
EXTT2=
EXTT3=
EXTT4=
EXTT5=
EXTT6=
EXTT7=
EXTT8=
EXTT9=
EXTT10=
EXTT11=
EXTT12=
EXTT13=
EXTT14=
EXTT15=
EXTT16=
PLAYORDER=
